#N canvas 2 91 1265 939 10;
#X obj 189 243 oscillator;
#X obj 190 66 midi_in;
#X obj 191 774 *~ 0.2;
#X obj 197 846 dac~;
#X obj 532 240 oscillator;
#X obj 872 239 oscillator;
#X connect 0 0 2 0;
#X connect 1 0 0 0;
#X connect 1 0 4 0;
#X connect 1 0 5 0;
#X connect 2 0 3 0;
#X connect 2 0 3 1;
#X connect 4 0 0 1;
#X connect 5 0 0 2;
