#N canvas 2 157 1265 939 10;
#X obj 101 101 cnv 15 298 298 empty empty OSC_4 20 12 0 14 -233017
-66577 0;
#X obj 143 145 cnv 15 98 48 empty empty empty 20 12 0 14 -4032 -66577
0;
#N canvas 0 50 450 250 (subpatch) 0;
#X array \$0-display 441 float 3;
#A 0 1 1 1 1 1 1 1 1 1 1 1 1 1 1 1 1 1 1 1 1 1 1 1 1 1 1 1 1 1 1 1
1 1 1 1 1 1 1 1 1 1 1 1 1 1 1 1 1 1 1 1 1 1 1 1 1 1 1 1 1 1 1 1 1 1
1 1 1 1 1 1 1 1 1 1 1 1 1 1 1 1 1 1 1 1 1 1 1 1 1 1 1 1 1 1 1 1 1 1
1 1 1 1 1 1 1 1 1 1 1 1 1 1 1 1 1 1 1 1 1 1 1 1 1 1 1 1 1 1 1 1 1 1
1 1 1 1 1 1 1 1 1 1 1 1 1 1 1 1 1 1 1 1 1 1 1 1 1 1 1 1 1 1 1 1 1 1
1 1 1 1 1 1 1 1 1 1 1 1 1 1 1 1 1 1 1 1 1 1 1 1 1 1 -1 -1 -1 -1 -1
-1 -1 -1 -1 -1 -1 -1 -1 -1 -1 -1 -1 -1 -1 -1 -1 -1 -1 -1 -1 -1 -1 -1
-1 -1 -1 -1 -1 -1 -1 -1 -1 -1 -1 -1 -1 -1 -1 -1 -1 -1 -1 -1 -1 -1 -1
-1 -1 -1 -1 -1 -1 -1 -1 -1 -1 -1 -1 1 1 1 1 1 1 1 1 1 1 1 1 1 1 1 1
1 1 1 1 1 1 1 1 1 1 1 1 1 1 1 1 1 1 1 1 1 1 1 1 1 1 1 1 1 1 1 1 1 1
1 1 1 1 1 1 1 1 1 1 1 1 1 1 1 1 1 1 1 1 1 1 1 1 1 1 1 1 1 1 1 1 1 1
1 1 1 1 1 1 1 1 1 1 1 1 1 1 1 1 1 1 1 1 1 1 1 1 1 1 1 1 1 1 1 1 1 1
1 1 1 1 1 1 1 1 1 1 1 1 1 1 1 1 1 1 1 1 1 1 1 1 1 1 1 1 1 1 1 1 1 1
1 1 1 1 1 1 1 1 1 1 1 1 1 1 1 1 1 1 1 1 1 1 1 1 1 1 1 1 1 1 1 1 1;
#X coords 0 1 440 -1 100 50 1 0 0;
#X restore 142 144 graph;
#X obj 114 140 vradio 15 1 0 4 \$0-wave-send \$0-wave-recv W 0 -8 0
10 -262144 -1 -1 3;
#X obj 143 204 hsl 101 15 0 1 0 0 \$0-phase-send \$0-phase-recv Phase:0.25
3 7 0 10 -262144 -1 -1 2500 1;
#X obj 143 230 hsl 99 15 0.01 0.99 0 0 \$0-width-send \$0-width-recv
Width:0.1867 3 7 0 10 -203904 -1 -1 1767 1;
#N canvas 2 97 1265 939 send-recv 0;
#X obj 19 37 r \$0-width-send;
#X msg 19 65 label Width:\$1;
#X obj 19 94 s \$0-width-recv;
#X obj 158 37 r \$0-phase-send;
#X obj 158 94 s \$0-phase-recv;
#X msg 158 65 label Phase:\$1;
#X obj 297 38 r \$0-amplitude-send;
#X obj 297 95 s \$0-amplitude-recv;
#X msg 297 66 label Amp:\$1;
#X connect 0 0 1 0;
#X connect 1 0 2 0;
#X connect 3 0 5 0;
#X connect 5 0 4 0;
#X connect 6 0 8 0;
#X connect 8 0 7 0;
#X restore 264 62 pd send-recv;
#X obj 23 39 loadbang;
#X msg 13 90 0.5;
#X msg 54 88 0;
#X obj 506 83 unpack f f f f f;
#N canvas 2 61 1265 939 wave_selector_oscillator 0;
#X obj 741 357 *~;
#X obj 760 306 pack f 50;
#X obj 760 329 line~;
#X obj 846 360 *~;
#X obj 865 309 pack f 50;
#X obj 865 332 line~;
#X obj 947 360 *~;
#X obj 966 309 pack f 50;
#X obj 966 332 line~;
#X obj 1043 358 *~;
#X obj 1062 307 pack f 50;
#X obj 1062 330 line~;
#X msg 147 359 1;
#X msg 147 391 0;
#X msg 147 422 0;
#X msg 147 452 0;
#X msg 209 422 0;
#X msg 209 452 0;
#X msg 209 359 0;
#X msg 209 391 1;
#X msg 267 451 0;
#X msg 267 358 0;
#X msg 267 390 0;
#X msg 267 421 1;
#X msg 318 360 0;
#X msg 318 392 0;
#X msg 318 423 0;
#X msg 318 453 1;
#X obj 95 208 sel 0 1 2 3;
#X obj 74 330 t b b b b;
#X obj 154 313 t b b b b;
#X obj 236 324 t b b b b;
#X obj 300 267 t b b b b;
#N canvas 2 105 450 300 sine 0;
#X obj 56 126 osc~;
#X obj 159 39 inlet phase;
#X floatatom 159 62 5 0 0 0 - - -, f 5;
#X obj 56 169 outlet~;
#X obj 55 39 inlet~ freq;
#X connect 0 0 3 0;
#X connect 1 0 2 0;
#X connect 2 0 0 1;
#X connect 4 0 0 0;
#X restore 740 231 pd sine;
#N canvas 2 99 450 300 triangle 0;
#X obj 259 87 inlet phase;
#X obj 89 181 phasor~;
#X obj 213 183 phasor~;
#X obj 89 220 clip~ 0 0.5;
#X obj 213 207 *~ -1;
#X obj 213 229 +~ 1;
#X obj 213 250 clip~ 0 0.5;
#X obj 88 297 +~;
#X obj 87 324 *~ 4;
#X obj 86 349 -~ 3;
#X obj 85 407 outlet~;
#X obj 89 86 inlet~ pitch;
#X connect 0 0 2 1;
#X connect 0 0 1 1;
#X connect 1 0 3 0;
#X connect 2 0 4 0;
#X connect 3 0 7 0;
#X connect 4 0 5 0;
#X connect 5 0 6 0;
#X connect 6 0 7 1;
#X connect 7 0 8 0;
#X connect 8 0 9 0;
#X connect 9 0 10 0;
#X connect 11 0 1 0;
#X connect 11 0 2 0;
#X restore 847 231 pd triangle;
#N canvas 2 99 450 300 sawtooth 0;
#X obj 98 158 phasor~;
#X obj 98 191 *~ -1;
#X obj 98 216 *~ 2;
#X obj 97 243 +~ 1;
#X obj 98 313 outlet~;
#X obj 204 64 inlet phase;
#X obj 98 63 inlet~ pitch;
#X connect 0 0 1 0;
#X connect 1 0 2 0;
#X connect 2 0 3 0;
#X connect 3 0 4 0;
#X connect 5 0 0 1;
#X connect 6 0 0 0;
#X restore 947 212 pd sawtooth;
#N canvas 2 99 450 300 pulse 0;
#X obj 51 182 phasor~;
#X obj 161 59 inlet phase;
#X floatatom 161 83 5 0 0 0 - - -, f 5;
#X obj 285 61 inlet width;
#X floatatom 285 85 5 0 0 0 - - -, f 5;
#X obj 285 133 line~;
#X obj 285 107 pack f 50;
#X obj 52 381 outlet~;
#X obj 52 278 *~ 2;
#X obj 52 307 -~ 1;
#X obj 51 237 expr~ $v1 > $v2;
#X obj 51 57 inlet~ note;
#X connect 0 0 10 0;
#X connect 1 0 2 0;
#X connect 2 0 0 1;
#X connect 3 0 4 0;
#X connect 4 0 6 0;
#X connect 5 0 10 1;
#X connect 6 0 5 0;
#X connect 8 0 9 0;
#X connect 9 0 7 0;
#X connect 10 0 8 0;
#X connect 11 0 0 0;
#X restore 1044 211 pd pulse;
#X obj 894 486 outlet~;
#X obj 95 79 inlet wave;
#X obj 244 76 inlet note;
#X obj 731 79 inlet pbend;
#X obj 849 77 inlet amount;
#X obj 1095 73 inlet width;
#X floatatom 1095 95 5 0 0 0 - - -, f 5;
#X floatatom 849 99 5 0 0 0 - - -, f 5;
#X floatatom 731 101 5 0 0 0 - - -, f 5;
#X floatatom 244 105 5 0 0 0 - - -, f 5;
#X obj 954 73 inlet phase;
#X floatatom 954 95 5 0 0 0 - - -, f 5;
#N canvas 2 193 1265 939 pitch_bending 0;
#X obj 134 56 inlet note;
#X obj 826 50 inlet pbend;
#X obj 962 49 inlet amount;
#X floatatom 136 77 5 0 0 0 - - -, f 5;
#X floatatom 826 73 8 0 0 0 - - -, f 8;
#X floatatom 962 71 5 0 0 0 - - -, f 5;
#X obj 96 236 - 12;
#X obj 193 242 + 12;
#X floatatom 98 276 5 0 0 0 - - -, f 5;
#X floatatom 145 276 5 0 0 0 - - -, f 5;
#X floatatom 195 275 5 0 0 0 - - -, f 5;
#X obj 98 295 mtof;
#X obj 145 295 mtof;
#X obj 195 294 mtof;
#X obj 78 353 nbx 5 14 -1e+37 1e+37 0 0 empty empty empty 0 -8 0 10
-262144 -1 -1 138.591 256;
#X obj 145 376 nbx 5 14 -1e+37 1e+37 0 0 empty empty empty 0 -8 0 10
-262144 -1 -1 138.591 256;
#X obj 217 366 nbx 5 14 -1e+37 1e+37 0 0 empty empty empty 0 -8 0 10
-262144 -1 -1 138.591 256;
#X obj 203 415 t b f;
#X obj 64 403 t b f;
#X obj 78 433 -;
#X obj 826 114 - 8192;
#X floatatom 826 136 8 0 0 0 - - -, f 8;
#X obj 826 155 moses 0;
#X obj 794 196 t f b b;
#X msg 817 230 0;
#X msg 841 263 1;
#X obj 887 198 t f b b;
#X msg 910 232 0;
#X msg 934 265 1;
#X obj 891 327 sel 0;
#X msg 891 349 -0;
#X floatatom 794 384 5 0 0 0 - - -, f 5;
#X floatatom 958 386 5 0 0 0 - - -, f 5;
#X obj 958 405 / 8191;
#X obj 794 403 / 8191;
#X obj 794 436 nbx 5 14 -1e+37 1e+37 0 0 empty empty empty 0 -8 0 10
-262144 -1 -1 -0.00787497 256;
#X obj 958 436 nbx 5 14 -1e+37 1e+37 0 0 empty empty empty 0 -8 0 10
-262144 -1 -1 0.0393749 256;
#X obj 103 560 t b f;
#X obj 78 599 *;
#X obj 242 568 t b f;
#X obj 217 596 *;
#X obj 78 477 nbx 5 14 -1e+37 1e+37 0 0 empty empty empty 0 -8 0 10
-262144 -1 -1 0 256;
#X obj 217 478 nbx 5 14 -1e+37 1e+37 0 0 empty empty empty 0 -8 0 10
-262144 -1 -1 0 256;
#X obj 78 628 nbx 5 14 -1e+37 1e+37 0 0 empty empty empty 0 -8 0 10
-262144 -1 -1 0 256;
#X obj 217 627 nbx 5 14 -1e+37 1e+37 0 0 empty empty empty 0 -8 0 10
-262144 -1 -1 0 256;
#X obj 78 652 t b f;
#X obj 217 646 t b f;
#X obj 217 720 nbx 5 14 -1e+37 1e+37 0 0 empty empty empty 0 -8 0 10
-262144 -1 -1 131.731 256;
#X obj 78 720 nbx 5 14 -1e+37 1e+37 0 0 empty empty empty 0 -8 0 10
-262144 -1 -1 131.731 256;
#X obj 78 739 spigot 1;
#X obj 217 739 spigot 1;
#X msg 217 761 \$1 50;
#X msg 78 761 \$1 50;
#X obj 119 851 outlet;
#X obj 217 680 -;
#X obj 79 684 -;
#X obj 217 445 -;
#X obj 303 53 inlet octave;
#X obj 440 55 inlet semitone;
#X obj 586 53 inlet cents;
#X floatatom 303 75 5 0 0 0 - - -, f 5;
#X obj 303 94 * 12;
#X obj 304 138 +;
#X floatatom 440 77 5 0 0 0 - - -, f 5;
#X obj 440 96 t b f;
#X floatatom 304 160 5 0 0 0 - - -, f 5;
#X obj 304 179 t b f;
#X obj 138 147 +;
#X floatatom 586 75 5 0 0 0 - - -, f 5;
#X obj 586 94 + 0.01;
#X obj 586 116 moses 0;
#X floatatom 138 169 5 0 0 0 - - -, f 5;
#X floatatom 598 170 5 0 0 0 - - -, f 5;
#X obj 643 202 + 1;
#X obj 547 202 - 1;
#X obj 598 231 mtof;
#X floatatom 547 224 5 0 0 0 - - -, f 5;
#X obj 547 243 mtof;
#X floatatom 643 224 5 0 0 0 - - -, f 5;
#X obj 643 243 mtof;
#X floatatom 547 265 5 0 0 0 - - -, f 5;
#X floatatom 643 265 5 0 0 0 - - -, f 5;
#X floatatom 598 253 5 0 0 0 - - -, f 5;
#X obj 582 566 t b f;
#X obj 541 596 -;
#X floatatom 541 620 5 0 0 0 - - -, f 5;
#X obj 523 655 *;
#X floatatom 523 677 5 0 0 0 - - -, f 5;
#X obj 523 696 t b f;
#X obj 523 743 +;
#X obj 758 567 t b f;
#X obj 758 592 -;
#X floatatom 758 614 5 0 0 0 - - -, f 5;
#X obj 740 649 *;
#X floatatom 740 671 5 0 0 0 - - -, f 5;
#X obj 740 690 t b f;
#X obj 740 737 +;
#X floatatom 147 450 5 0 0 0 - - -, f 5;
#X connect 0 0 3 0;
#X connect 1 0 4 0;
#X connect 2 0 5 0;
#X connect 3 0 67 0;
#X connect 4 0 20 0;
#X connect 5 0 6 1;
#X connect 5 0 7 1;
#X connect 6 0 8 0;
#X connect 7 0 10 0;
#X connect 8 0 11 0;
#X connect 9 0 12 0;
#X connect 10 0 13 0;
#X connect 11 0 14 0;
#X connect 12 0 15 0;
#X connect 12 0 17 0;
#X connect 12 0 18 0;
#X connect 13 0 16 0;
#X connect 14 0 19 0;
#X connect 15 0 89 0;
#X connect 16 0 56 0;
#X connect 17 0 56 0;
#X connect 17 1 56 1;
#X connect 18 0 19 0;
#X connect 18 1 19 1;
#X connect 19 0 41 0;
#X connect 20 0 21 0;
#X connect 21 0 22 0;
#X connect 22 0 23 0;
#X connect 22 1 26 0;
#X connect 23 0 31 0;
#X connect 23 1 24 0;
#X connect 23 2 25 0;
#X connect 24 0 50 1;
#X connect 25 0 49 1;
#X connect 26 0 29 0;
#X connect 26 0 32 0;
#X connect 26 1 27 0;
#X connect 26 2 28 0;
#X connect 27 0 49 1;
#X connect 28 0 50 1;
#X connect 29 0 30 0;
#X connect 30 0 31 0;
#X connect 31 0 34 0;
#X connect 32 0 33 0;
#X connect 33 0 36 0;
#X connect 34 0 35 0;
#X connect 35 0 37 0;
#X connect 36 0 39 0;
#X connect 37 0 38 0;
#X connect 37 1 38 1;
#X connect 38 0 43 0;
#X connect 39 0 40 0;
#X connect 39 1 40 1;
#X connect 40 0 44 0;
#X connect 41 0 38 0;
#X connect 42 0 40 0;
#X connect 43 0 45 0;
#X connect 44 0 46 0;
#X connect 45 0 55 0;
#X connect 45 1 55 1;
#X connect 46 0 54 0;
#X connect 46 1 54 1;
#X connect 47 0 50 0;
#X connect 48 0 49 0;
#X connect 49 0 52 0;
#X connect 50 0 51 0;
#X connect 51 0 53 0;
#X connect 52 0 53 0;
#X connect 54 0 47 0;
#X connect 55 0 48 0;
#X connect 56 0 42 0;
#X connect 57 0 60 0;
#X connect 58 0 63 0;
#X connect 59 0 68 0;
#X connect 60 0 61 0;
#X connect 61 0 62 0;
#X connect 62 0 65 0;
#X connect 63 0 64 0;
#X connect 64 0 62 0;
#X connect 64 1 62 1;
#X connect 65 0 66 0;
#X connect 66 0 67 0;
#X connect 66 1 67 1;
#X connect 67 0 71 0;
#X connect 68 0 69 0;
#X connect 69 0 70 0;
#X connect 70 0 86 0;
#X connect 70 1 93 0;
#X connect 71 0 7 0;
#X connect 71 0 9 0;
#X connect 71 0 6 0;
#X connect 71 0 72 0;
#X connect 72 0 74 0;
#X connect 72 0 73 0;
#X connect 72 0 75 0;
#X connect 73 0 78 0;
#X connect 74 0 76 0;
#X connect 75 0 82 0;
#X connect 76 0 77 0;
#X connect 77 0 80 0;
#X connect 78 0 79 0;
#X connect 79 0 81 0;
#X connect 80 0 83 0;
#X connect 81 0 91 0;
#X connect 82 0 84 0;
#X connect 82 0 90 0;
#X connect 83 0 84 0;
#X connect 83 1 84 1;
#X connect 84 0 85 0;
#X connect 85 0 86 1;
#X connect 86 0 87 0;
#X connect 87 0 88 0;
#X connect 88 0 89 0;
#X connect 88 1 89 1;
#X connect 89 0 97 0;
#X connect 90 0 91 0;
#X connect 90 1 91 1;
#X connect 91 0 92 0;
#X connect 92 0 93 1;
#X connect 93 0 94 0;
#X connect 94 0 95 0;
#X connect 95 0 96 0;
#X connect 95 1 96 1;
#X connect 97 0 54 0;
#X connect 97 0 55 0;
#X restore 250 149 pd pitch_bending;
#X obj 345 77 inlet octave;
#X obj 457 78 inlet semitone;
#X obj 610 79 inlet cents;
#X obj 1205 76 inlet~;
#X obj 250 171 pack f 50;
#X obj 285 196 +~;
#X obj 538 483 outlet pitch;
#X connect 0 0 37 0;
#X connect 1 0 2 0;
#X connect 2 0 0 1;
#X connect 3 0 37 0;
#X connect 4 0 5 0;
#X connect 5 0 3 1;
#X connect 6 0 37 0;
#X connect 7 0 8 0;
#X connect 8 0 6 1;
#X connect 9 0 37 0;
#X connect 10 0 11 0;
#X connect 11 0 9 1;
#X connect 12 0 1 0;
#X connect 13 0 4 0;
#X connect 14 0 7 0;
#X connect 15 0 10 0;
#X connect 16 0 7 0;
#X connect 17 0 10 0;
#X connect 18 0 1 0;
#X connect 19 0 4 0;
#X connect 20 0 10 0;
#X connect 21 0 1 0;
#X connect 22 0 4 0;
#X connect 23 0 7 0;
#X connect 24 0 1 0;
#X connect 25 0 4 0;
#X connect 26 0 7 0;
#X connect 27 0 10 0;
#X connect 28 0 29 0;
#X connect 28 1 30 0;
#X connect 28 2 31 0;
#X connect 28 3 32 0;
#X connect 29 0 12 0;
#X connect 29 1 13 0;
#X connect 29 2 14 0;
#X connect 29 3 15 0;
#X connect 30 0 18 0;
#X connect 30 1 19 0;
#X connect 30 2 16 0;
#X connect 30 3 17 0;
#X connect 31 0 21 0;
#X connect 31 1 22 0;
#X connect 31 2 23 0;
#X connect 31 3 20 0;
#X connect 32 0 24 0;
#X connect 32 1 25 0;
#X connect 32 2 26 0;
#X connect 32 3 27 0;
#X connect 33 0 0 0;
#X connect 34 0 3 0;
#X connect 35 0 6 0;
#X connect 36 0 9 0;
#X connect 38 0 28 0;
#X connect 39 0 46 0;
#X connect 40 0 45 0;
#X connect 41 0 44 0;
#X connect 42 0 43 0;
#X connect 43 0 36 2;
#X connect 44 0 49 5;
#X connect 45 0 49 4;
#X connect 46 0 49 0;
#X connect 47 0 48 0;
#X connect 48 0 33 1;
#X connect 48 0 34 1;
#X connect 48 0 35 1;
#X connect 48 0 36 1;
#X connect 49 0 54 0;
#X connect 49 0 56 0;
#X connect 50 0 49 1;
#X connect 51 0 49 2;
#X connect 52 0 49 3;
#X connect 53 0 55 1;
#X connect 54 0 55 0;
#X connect 55 0 33 0;
#X connect 55 0 34 0;
#X connect 55 0 35 0;
#X connect 55 0 36 0;
#X restore 499 286 pd wave_selector_oscillator;
#X obj 729 483 metro 100;
#X obj 728 525 tabwrite~ \$0-display;
#X obj 728 451 tgl 15 0 empty empty empty 17 7 0 10 -262144 -1 -1 1
1;
#X obj 499 605 outlet~;
#X obj 262 144 nbx 5 14 -4 4 0 0 empty empty Octave 0 -8 0 10 -261682
-1 -1 -1 256;
#X obj 262 179 nbx 5 14 -12 12 0 0 empty empty Semitone 0 -8 0 10 -261682
-1 -1 1 256;
#X obj 262 209 nbx 5 14 -50 50 0 0 empty empty Cents 0 -8 0 10 -261682
-1 -1 0 256;
#X obj 683 134 / 127;
#X obj 683 156 sel 0 1;
#X msg 672 193 0.01;
#X msg 724 194 0.99;
#X floatatom 672 228 5 0 0 0 - - -, f 5;
#X obj 672 247 spigot 0;
#X msg 725 224 \$1;
#X obj 263 228 tgl 15 0 empty empty Width 17 7 0 10 -261234 -1 -1 1
1;
#X msg 29 181 1;
#X obj 144 257 hsl 128 15 0 1 0 0 \$0-amplitude-send \$0-amplitude-recv
Amp:1 3 8 0 10 -262130 -1 -1 12700 1;
#X obj 516 468 *~;
#X obj 941 63 inlet~ fm_sig;
#X obj 506 47 inlet midi;
#N canvas 2 145 1265 939 adsr~ 0;
#X floatatom 16 64 5 0 0 0 - - -, f 5;
#X floatatom 185 69 5 0 0 0 - - -, f 5;
#X floatatom 347 65 5 0 0 0 - - -, f 5;
#X floatatom 684 62 5 0 0 0 - - -, f 5;
#X obj 16 42 inlet velocity;
#X obj 185 43 inlet duration;
#X obj 347 43 inlet attack;
#X obj 684 40 inlet sustain;
#X obj 828 42 inlet release;
#X floatatom 828 64 5 0 0 0 - - -, f 5;
#X obj 543 42 inlet decay;
#X floatatom 543 64 5 0 0 0 - - -, f 5;
#X obj 16 112 sel 0;
#X msg 16 274 0;
#X obj 67 137 t b b f;
#X obj 95 198 f;
#X obj 90 171 delay 10;
#X msg 67 275 1;
#X obj 347 143 *;
#X obj 347 112 t b f;
#X floatatom 347 165 5 0 0 0 - - -, f 5;
#X obj 543 142 *;
#X obj 543 111 t b f;
#X floatatom 543 164 5 0 0 0 - - -, f 5;
#X obj 828 149 *;
#X obj 828 118 t b f;
#X floatatom 828 171 5 0 0 0 - - -, f 5;
#X obj 103 225 / 127;
#X obj 684 156 *;
#X obj 684 125 t b f;
#X floatatom 684 178 5 0 0 0 - - -, f 5;
#X obj 294 718 line~;
#X obj 294 759 outlet~;
#X obj 294 488 pack f f;
#X floatatom 103 247 5 0 0 0 - - -, f 5;
#X obj 489 464 spigot 0;
#X obj 370 486 delay 10;
#X obj 489 499 pack f f;
#X obj 489 426 f;
#X obj 775 336 pack f f;
#X obj 275 425 t f b;
#X connect 0 0 12 0;
#X connect 1 0 18 0;
#X connect 1 0 21 0;
#X connect 1 0 24 0;
#X connect 2 0 19 0;
#X connect 3 0 29 0;
#X connect 4 0 0 0;
#X connect 5 0 1 0;
#X connect 6 0 2 0;
#X connect 7 0 3 0;
#X connect 8 0 9 0;
#X connect 9 0 25 0;
#X connect 10 0 11 0;
#X connect 11 0 22 0;
#X connect 12 0 13 0;
#X connect 12 1 14 0;
#X connect 13 0 35 1;
#X connect 13 0 39 0;
#X connect 14 0 17 0;
#X connect 14 1 16 0;
#X connect 14 2 15 1;
#X connect 15 0 27 0;
#X connect 16 0 15 0;
#X connect 17 0 35 1;
#X connect 18 0 20 0;
#X connect 19 0 18 0;
#X connect 19 1 18 1;
#X connect 20 0 36 1;
#X connect 20 0 33 1;
#X connect 21 0 23 0;
#X connect 22 0 21 0;
#X connect 22 1 21 1;
#X connect 23 0 37 1;
#X connect 24 0 26 0;
#X connect 25 0 24 0;
#X connect 25 1 24 1;
#X connect 26 0 39 1;
#X connect 27 0 34 0;
#X connect 28 0 30 0;
#X connect 29 0 28 0;
#X connect 29 1 28 1;
#X connect 30 0 38 1;
#X connect 31 0 32 0;
#X connect 33 0 31 0;
#X connect 34 0 28 0;
#X connect 34 0 40 0;
#X connect 35 0 37 0;
#X connect 36 0 38 0;
#X connect 37 0 31 0;
#X connect 38 0 35 0;
#X connect 39 0 31 0;
#X connect 40 0 33 0;
#X connect 40 1 36 0;
#X restore 420 506 pd adsr~;
#X obj 499 559 *~;
#X obj 140 288 vsl 15 100 0.01 1 0 0 empty empty A 3 9 0 10 -262130
-1 -1 2500 1;
#X obj 167 288 vsl 15 100 0.01 1 0 0 empty empty D 3 9 0 10 -262130
-1 -1 7200 1;
#X obj 194 287 vsl 15 100 0.01 1 0 0 empty empty S 3 9 0 10 -262130
-1 -1 7000 1;
#X obj 221 287 vsl 15 100 0.01 1 0 0 empty empty R 3 9 0 10 -262130
-1 -1 4900 1;
#X obj 244 292 nbx 5 14 -1e+37 1e+37 0 0 empty empty Duration 0 -8
0 10 -262130 -1 -1 1039 256;
#X msg 102 73 1000;
#X obj 401 434 change;
#X obj 454 170 change;
#X obj 549 169 change;
#X obj 619 150 change;
#X obj 683 111 change;
#X obj 1067 67 inlet~ rm_sig;
#X obj 344 142 tgl 15 0 empty empty RM 0 -7 0 10 -203904 -1 -1 0 1
;
#X obj 686 359 pack f 50;
#X obj 686 381 +~;
#X floatatom 923 110 5 0 0 0 - - -, f 5;
#X obj 923 129 pack f 50;
#X obj 923 152 line~;
#X obj 332 180 vsl 15 128 0 1 0 0 empty empty FM_Amt 0 -9 0 10 -262144
-1 -1 0 1;
#X obj 830 128 pack f 50;
#X obj 830 151 line~;
#X obj 830 178 *~;
#X obj 830 211 *~;
#X connect 3 0 11 0;
#X connect 4 0 11 7;
#X connect 5 0 11 8;
#X connect 7 0 8 0;
#X connect 7 0 9 0;
#X connect 7 0 27 0;
#X connect 7 0 39 0;
#X connect 8 0 5 0;
#X connect 8 0 34 0;
#X connect 8 0 35 0;
#X connect 8 0 36 0;
#X connect 8 0 37 0;
#X connect 9 0 3 0;
#X connect 9 0 4 0;
#X connect 9 0 26 0;
#X connect 9 0 17 0;
#X connect 9 0 18 0;
#X connect 9 0 16 0;
#X connect 9 0 46 0;
#X connect 9 0 52 0;
#X connect 10 0 41 0;
#X connect 10 1 40 0;
#X connect 10 2 42 0;
#X connect 10 3 43 0;
#X connect 10 4 44 0;
#X connect 11 0 49 0;
#X connect 11 1 29 0;
#X connect 12 0 13 0;
#X connect 14 0 12 0;
#X connect 16 0 11 2;
#X connect 17 0 11 3;
#X connect 18 0 11 4;
#X connect 19 0 20 0;
#X connect 20 0 21 0;
#X connect 20 1 22 0;
#X connect 20 2 23 0;
#X connect 21 0 23 0;
#X connect 22 0 23 0;
#X connect 23 0 24 0;
#X connect 24 0 5 0;
#X connect 25 0 24 1;
#X connect 26 0 25 0;
#X connect 27 0 14 0;
#X connect 27 0 28 0;
#X connect 28 0 47 0;
#X connect 29 0 13 0;
#X connect 29 0 33 1;
#X connect 30 0 56 1;
#X connect 31 0 10 0;
#X connect 32 0 33 0;
#X connect 33 0 15 0;
#X connect 34 0 32 2;
#X connect 35 0 32 3;
#X connect 36 0 32 4;
#X connect 37 0 32 5;
#X connect 38 0 32 1;
#X connect 39 0 38 0;
#X connect 40 0 32 0;
#X connect 41 0 11 1;
#X connect 42 0 11 5;
#X connect 43 0 11 6;
#X connect 44 0 19 0;
#X connect 45 0 48 1;
#X connect 47 0 48 0;
#X connect 48 0 29 1;
#X connect 49 0 50 0;
#X connect 50 0 51 0;
#X connect 51 0 55 1;
#X connect 52 0 53 0;
#X connect 53 0 54 0;
#X connect 54 0 55 0;
#X connect 55 0 56 0;
#X connect 56 0 11 9;
#X coords 0 -1 1 1 300 300 1 100 100;
